# xmcd
#
# Track frame offsets:
#	150
#	15487
#	29899
#	43594
#	58825
#	83897
#	100223
#	115644
#	126930
#	141930
#	156824
#
# Disc length: 2275 seconds
#
# Revision: 0
# Processed by: cddbd v1.5.2PL0 Copyright (c) Steve Scherf et al.
# Submitted via: EasyCDDAExtractor 4.6.0.1
#
DISCID=9308e10b
DTITLE=Ronnie Milsap - Ronnie Milsap  st
DYEAR=1900
DGENRE=Country
TTITLE0=Dedicate The Blues To Me
TTITLE1=Sunday Rain
TTITLE2=Please Don't Tell Me How The Story Ends
TTITLE3=Sweet Little Rock And Roller
TTITLE4=Blue Skies Of Montana
TTITLE5=Sanctified
TTITLE6=Keep On Smiling
TTITLE7=The Cat Was A Junkie
TTITLE8=Crying
TTITLE9=Not For The Love Of A Woman
TTITLE10=Why
EXTD=
EXTT0=
EXTT1=
EXTT2=
EXTT3=
EXTT4=
EXTT5=
EXTT6=
EXTT7=
EXTT8=
EXTT9=
EXTT10=
PLAYORDER=
